<svg width="80" height="80" viewBox="0 0 80 80" fill="none" xmlns="http://www.w3.org/2000/svg">
<g id="Social Icons/Github/Original">
<path id="Vector" fill-rule="evenodd" clip-rule="evenodd" d="M40.0331 0C17.8958 0 0 18.0278 0 40.3306C0 58.1584 11.4665 73.2492 27.3735 78.5904C29.3623 78.9919 30.0908 77.7226 30.0908 76.6548C30.0908 75.7199 30.0252 72.515 30.0252 69.1758C18.889 71.58 16.57 64.3681 16.57 64.3681C14.7803 59.694 12.1286 58.4927 12.1286 58.4927C8.4837 56.0221 12.3941 56.0221 12.3941 56.0221C16.4372 56.2892 18.5588 60.1619 18.5588 60.1619C22.1373 66.3045 27.9037 64.5689 30.2235 63.5003C30.5546 60.8961 31.6158 59.0934 32.7425 58.092C23.8606 57.157 14.5156 53.685 14.5156 38.1934C14.5156 33.7865 16.1053 30.1809 18.6243 27.3768C18.2269 26.3754 16.8347 22.2348 19.0226 16.6929C19.0226 16.6929 22.4028 15.6243 30.0244 20.8327C33.2875 19.9499 36.6527 19.5008 40.0331 19.497C43.4133 19.497 46.8591 19.9649 50.041 20.8327C57.6634 15.6243 61.0436 16.6929 61.0436 16.6929C63.2315 22.2348 61.8385 26.3754 61.4411 27.3768C64.0264 30.1809 65.5506 33.7865 65.5506 38.1934C65.5506 53.685 56.2056 57.0898 47.2573 58.092C48.7159 59.3605 49.9746 61.7639 49.9746 65.5702C49.9746 70.9786 49.909 75.3192 49.909 76.654C49.909 77.7226 50.6383 78.9919 52.6263 78.5912C68.5333 73.2484 79.9998 58.1584 79.9998 40.3306C80.0654 18.0278 62.104 0 40.0331 0Z" fill="#24292F"/>
</g>
</svg>
