<?xml version="1.0" encoding="UTF-8"?>
<svg id="Layer_10" data-name="Layer 10" xmlns="http://www.w3.org/2000/svg" xmlns:xlink="http://www.w3.org/1999/xlink" viewBox="0 0 300 300">
  <defs>
    <style>
      .cls-1 {
        fill: url(#New_Gradient_Swatch_1);
      }

      .cls-1, .cls-2, .cls-3, .cls-4, .cls-5, .cls-6 {
        stroke-width: 0px;
      }

      .cls-2 {
        fill: url(#New_Gradient_Swatch_2);
      }

      .cls-3 {
        fill: url(#New_Gradient_Swatch_1-2);
      }

      .cls-4 {
        fill: none;
      }

      .cls-5 {
        fill: url(#linear-gradient);
      }

      .cls-6 {
        fill: url(#linear-gradient-2);
      }
    </style>
    <linearGradient id="New_Gradient_Swatch_1" data-name="New Gradient Swatch 1" x1="-4115.01" y1="-946.81" x2="-3942.16" y2="-773.96" gradientTransform="translate(1029.84 -3819.84) rotate(-90)" gradientUnits="userSpaceOnUse">
      <stop offset="0" stop-color="#2d2c7d"/>
      <stop offset=".18" stop-color="#2e3c86"/>
      <stop offset=".52" stop-color="#31669e"/>
      <stop offset="1" stop-color="#36abc5"/>
    </linearGradient>
    <linearGradient id="New_Gradient_Swatch_1-2" data-name="New Gradient Swatch 1" x1="-4071.66" y1="-979.34" x2="-3864.95" y2="-772.63" xlink:href="#New_Gradient_Swatch_1"/>
    <linearGradient id="New_Gradient_Swatch_2" data-name="New Gradient Swatch 2" x1="-4004.46" y1="-992.35" x2="-3824.83" y2="-812.73" gradientTransform="translate(1029.84 -3819.84) rotate(-90)" gradientUnits="userSpaceOnUse">
      <stop offset="0" stop-color="#df2472"/>
      <stop offset=".22" stop-color="#de2976"/>
      <stop offset=".52" stop-color="#dc3a84"/>
      <stop offset=".85" stop-color="#da569a"/>
      <stop offset="1" stop-color="#d965a6"/>
    </linearGradient>
    <linearGradient id="linear-gradient" x1="-3945.22" y1="-929.68" x2="-3881.97" y2="-966.2" gradientTransform="translate(1029.84 -3819.84) rotate(-90)" gradientUnits="userSpaceOnUse">
      <stop offset="0" stop-color="#2d2c7d"/>
      <stop offset=".16" stop-color="#2d307f"/>
      <stop offset=".34" stop-color="#2e3e87"/>
      <stop offset=".53" stop-color="#2f5494"/>
      <stop offset=".73" stop-color="#3273a5"/>
      <stop offset=".93" stop-color="#349bbc"/>
      <stop offset="1" stop-color="#36abc5"/>
    </linearGradient>
    <linearGradient id="linear-gradient-2" x1="-3940.97" y1="-922.32" x2="-3877.72" y2="-958.84" gradientTransform="translate(1029.84 -3819.84) rotate(-90)" gradientUnits="userSpaceOnUse">
      <stop offset="0" stop-color="#df2472"/>
      <stop offset=".23" stop-color="#de2875"/>
      <stop offset=".5" stop-color="#dd3781"/>
      <stop offset=".79" stop-color="#db4f94"/>
      <stop offset="1" stop-color="#d965a6"/>
    </linearGradient>
  </defs>
  <path id="_2" data-name="2" class="cls-4" d="M299.69,159.75c-37.75-14.97-61.68-5.6-86.78,25.16-11.21,13.44-20.47,28.05-33.15,40.28-19.19,18.55-46,29.89-72.81,28.46-21.22-.98-44.48-7.99-63.01-17.94-9.81-5.12-19.67-12.04-28.11-18.57,1.25,2.49,2.56,4.95,3.95,7.36,9.47,6.9,19.04,13.58,29.38,19.09,38.28,20.67,81.9,24.71,118.19-2.45,11.25-8.19,20.73-18.45,29.6-29.1,17.46-20.71,35.59-45.58,63.89-49.67,12.75-1.89,25.62.7,38.35,3.26.2-1.95.37-3.91.49-5.88Z"/>
  <path id="_1-2" data-name="1" class="cls-1" d="M260.85,162.37c-28.3,4.09-46.43,28.96-63.89,49.67-8.88,10.66-18.35,20.91-29.6,29.1-36.29,27.16-79.91,23.11-118.19,2.45-10.34-5.51-19.92-12.2-29.38-19.09,25.86,45.11,74.49,75.5,130.22,75.5,77.57,0,141.38-58.87,149.19-134.37-12.73-2.56-25.6-5.14-38.35-3.26Z"/>
  <path id="_3" data-name="3" class="cls-3" d="M210.11,74.35c-12.79,16.08-35.56,61.4-57.92,85.94-28.82,34.31-56.5,39.1-91.54,27.55-5.11-1.75-8.27-3-11.03-4.15C28.78,175.98,10.91,160.4.08,145.13c-.05,1.62-.08,3.24-.08,4.87,0,24.14,5.7,46.95,15.84,67.15h0c8.45,6.51,18.31,13.44,28.11,18.56,18.53,9.95,41.78,16.96,63.01,17.94,26.81,1.43,53.62-9.91,72.81-28.46,12.68-12.24,21.94-26.85,33.15-40.28,25.1-30.76,49.02-40.13,86.78-25.16h0c.21-3.22.31-6.47.31-9.75,0-40.7-16.21-77.61-42.52-104.63-20.83-.29-37.51,15.81-47.37,28.98Z"/>
  <path id="_4" data-name="4" class="cls-2" d="M1.39,129.54c-.7,5.12-1.14,10.32-1.3,15.58,10.83,15.27,28.7,30.85,49.54,38.56,2.77,1.15,5.93,2.4,11.03,4.15,35.04,11.55,62.71,6.75,91.54-27.55,22.36-24.54,45.13-69.86,57.92-85.94,9.86-13.17,26.54-29.27,47.37-28.98-4.77-4.9-9.87-9.47-15.26-13.68-21.48,4.32-40.24,32.67-53.8,53.32-2.9,4.36-5.75,8.77-8.61,13.16-13.22,20.04-26.4,41.07-44.92,56.93-11.43,10.03-23.33,15.84-35.45,18.14-13.71,2.6-25.03.09-31.03-1.27-14.74-3.34-24.54-9.61-35.32-16.5-8.4-5.37-19.8-13.68-31.7-25.93Z"/>
  <circle class="cls-5" cx="81.91" cy="93.75" r="36.51"/>
  <path class="cls-6" d="M58.84,65.45c5.72-3.93,12.64-6.23,20.1-6.23,19.62,0,35.53,15.91,35.53,35.53s-15.12,34.72-34.05,35.49c.49.02.99.03,1.49.03,20.17,0,36.51-16.35,36.51-36.51s-16.35-36.51-36.51-36.51c-8.75,0-16.78,3.08-23.06,8.21Z"/>
</svg>