<?xml version="1.0" encoding="UTF-8"?>
<svg id="Layer_10" data-name="Layer 10" xmlns="http://www.w3.org/2000/svg" xmlns:xlink="http://www.w3.org/1999/xlink" viewBox="0 0 2191.98 268.31">
  <defs>
    <style>
      .cls-1 {
        fill: url(#New_Gradient_Swatch_1);
      }

      .cls-1, .cls-2, .cls-3, .cls-4, .cls-5, .cls-6, .cls-7 {
        stroke-width: 0px;
      }

      .cls-2 {
        fill: url(#New_Gradient_Swatch_2);
      }

      .cls-3 {
        fill: url(#New_Gradient_Swatch_1-2);
      }

      .cls-4 {
        fill: none;
      }

      .cls-5 {
        fill: url(#linear-gradient);
      }

      .cls-6 {
        fill: url(#linear-gradient-2);
      }

      .cls-7 {
        fill: #eae8f4;
      }
    </style>
    <linearGradient id="New_Gradient_Swatch_1" data-name="New Gradient Swatch 1" x1="-4874.05" y1="-946.08" x2="-4701.2" y2="-773.23" gradientTransform="translate(1029.11 -4610.57) rotate(-90)" gradientUnits="userSpaceOnUse">
      <stop offset="0" stop-color="#2d2c7d"/>
      <stop offset=".18" stop-color="#2e3c86"/>
      <stop offset=".52" stop-color="#31669e"/>
      <stop offset="1" stop-color="#36abc5"/>
    </linearGradient>
    <linearGradient id="New_Gradient_Swatch_1-2" data-name="New Gradient Swatch 1" x1="-4830.7" y1="-978.61" x2="-4623.99" y2="-771.9" xlink:href="#New_Gradient_Swatch_1"/>
    <linearGradient id="New_Gradient_Swatch_2" data-name="New Gradient Swatch 2" x1="-4763.5" y1="-991.62" x2="-4583.87" y2="-812" gradientTransform="translate(1029.11 -4610.57) rotate(-90)" gradientUnits="userSpaceOnUse">
      <stop offset="0" stop-color="#df2472"/>
      <stop offset=".22" stop-color="#de2976"/>
      <stop offset=".52" stop-color="#dc3a84"/>
      <stop offset=".85" stop-color="#da569a"/>
      <stop offset="1" stop-color="#d965a6"/>
    </linearGradient>
    <linearGradient id="linear-gradient" x1="-4704.26" y1="-928.95" x2="-4641.01" y2="-965.47" gradientTransform="translate(1029.11 -4610.57) rotate(-90)" gradientUnits="userSpaceOnUse">
      <stop offset="0" stop-color="#2d2c7d"/>
      <stop offset=".16" stop-color="#2d307f"/>
      <stop offset=".34" stop-color="#2e3e87"/>
      <stop offset=".53" stop-color="#2f5494"/>
      <stop offset=".73" stop-color="#3273a5"/>
      <stop offset=".93" stop-color="#349bbc"/>
      <stop offset="1" stop-color="#36abc5"/>
    </linearGradient>
    <linearGradient id="linear-gradient-2" x1="-4700.01" y1="-921.59" x2="-4636.76" y2="-958.11" gradientTransform="translate(1029.11 -4610.57) rotate(-90)" gradientUnits="userSpaceOnUse">
      <stop offset="0" stop-color="#df2472"/>
      <stop offset=".23" stop-color="#de2875"/>
      <stop offset=".5" stop-color="#dd3781"/>
      <stop offset=".79" stop-color="#db4f94"/>
      <stop offset="1" stop-color="#d965a6"/>
    </linearGradient>
  </defs>
  <g>
    <path id="_2" data-name="2" class="cls-4" d="M299.69,128.06c-37.75-14.97-61.68-5.6-86.78,25.16-11.21,13.44-20.47,28.05-33.15,40.28-19.19,18.55-46,29.89-72.81,28.46-21.22-.98-44.48-7.99-63.01-17.94-9.81-5.12-19.67-12.04-28.11-18.57,1.25,2.49,2.56,4.95,3.95,7.36,9.47,6.9,19.04,13.58,29.38,19.09,38.28,20.67,81.9,24.71,118.19-2.45,11.25-8.19,20.73-18.45,29.6-29.1,17.46-20.71,35.59-45.58,63.89-49.67,12.75-1.89,25.62.7,38.35,3.26.2-1.95.37-3.91.49-5.88Z"/>
    <path id="_1-2" data-name="1" class="cls-1" d="M260.85,130.68c-28.3,4.09-46.43,28.96-63.89,49.67-8.88,10.66-18.35,20.91-29.6,29.1-36.29,27.16-79.91,23.11-118.19,2.45-10.34-5.51-19.92-12.2-29.38-19.09,25.86,45.11,74.49,75.5,130.22,75.5,77.57,0,141.38-58.87,149.19-134.37-12.73-2.56-25.6-5.14-38.35-3.26Z"/>
    <path id="_3" data-name="3" class="cls-3" d="M210.11,42.66c-12.79,16.08-35.56,61.4-57.92,85.94-28.82,34.31-56.5,39.1-91.54,27.55-5.11-1.75-8.27-3-11.03-4.15C28.78,144.29,10.91,128.71.08,113.44c-.05,1.62-.08,3.24-.08,4.87,0,24.14,5.7,46.95,15.84,67.15h0c8.45,6.51,18.31,13.44,28.11,18.56,18.53,9.95,41.78,16.96,63.01,17.94,26.81,1.43,53.62-9.91,72.81-28.46,12.68-12.24,21.94-26.85,33.15-40.28,25.1-30.76,49.02-40.13,86.78-25.16h0c.21-3.22.31-6.47.31-9.75,0-40.7-16.21-77.61-42.52-104.63-20.83-.29-37.51,15.81-47.37,28.98Z"/>
    <path id="_4" data-name="4" class="cls-2" d="M1.39,97.86c-.7,5.12-1.14,10.32-1.3,15.58,10.83,15.27,28.7,30.85,49.54,38.56,2.77,1.15,5.93,2.4,11.03,4.15,35.04,11.55,62.71,6.75,91.54-27.55,22.36-24.54,45.13-69.86,57.92-85.94,9.86-13.17,26.54-29.27,47.37-28.98-4.77-4.9-9.87-9.47-15.26-13.68-21.48,4.32-40.24,32.67-53.8,53.32-2.9,4.36-5.75,8.77-8.61,13.16-13.22,20.04-26.4,41.07-44.92,56.93-11.43,10.03-23.33,15.84-35.45,18.14-13.71,2.6-25.03.09-31.03-1.27-14.74-3.34-24.54-9.61-35.32-16.5-8.4-5.37-19.8-13.68-31.7-25.93Z"/>
    <circle class="cls-5" cx="81.91" cy="62.06" r="36.51"/>
    <path class="cls-6" d="M58.84,33.76c5.72-3.93,12.64-6.23,20.1-6.23,19.62,0,35.53,15.91,35.53,35.53s-15.12,34.72-34.05,35.49c.49.02.99.03,1.49.03,20.17,0,36.51-16.35,36.51-36.51s-16.35-36.51-36.51-36.51c-8.75,0-16.78,3.08-23.06,8.21Z"/>
  </g>
  <g>
    <path class="cls-7" d="M452,164.46c0,12.8-2.53,23.73-7.6,32.8-5.07,9.07-12.1,16.03-21.1,20.9-9,4.87-19.43,7.5-31.3,7.9v-28.2c9.07-.54,16.47-3.33,22.2-8.4,5.73-5.07,8.6-13.6,8.6-25.6V48.26h29.2v116.2Z"/>
    <path class="cls-7" d="M469.4,195.46l66.4-153h1.6l66.4,153h-33.6l-42.4-107.6,21-14.4-50.8,122h-28.6ZM514.8,142.26h44.2l10.2,24.4h-63.4l9-24.4Z"/>
    <path class="cls-7" d="M703.8,83.86c-5.6-3.07-11.3-5.6-17.1-7.6s-11.23-3-16.3-3c-6.27,0-11.2,1.27-14.8,3.8-3.6,2.54-5.4,6.33-5.4,11.4,0,3.47,1.37,6.57,4.1,9.3,2.73,2.73,6.27,5.17,10.6,7.3,4.33,2.13,8.83,4.07,13.5,5.8,5.73,2.13,11.27,4.83,16.6,8.1,5.33,3.27,9.73,7.73,13.2,13.4,3.47,5.67,5.2,13.17,5.2,22.5,0,7.47-1.93,14.4-5.8,20.8-3.87,6.4-9.54,11.57-17,15.5-7.47,3.93-16.67,5.9-27.6,5.9-8.4,0-16.97-1.27-25.7-3.8-8.73-2.53-16.97-6.53-24.7-12l12.8-22.6c5.07,3.73,10.87,6.8,17.4,9.2,6.53,2.4,12.4,3.6,17.6,3.6,3.47,0,6.97-.5,10.5-1.5,3.53-1,6.47-2.7,8.8-5.1,2.33-2.4,3.5-5.73,3.5-10,0-2.93-.97-5.6-2.9-8-1.93-2.4-4.53-4.6-7.8-6.6-3.27-2-6.83-3.73-10.7-5.2-4.53-1.73-9.2-3.73-14-6-4.8-2.27-9.3-5.03-13.5-8.3-4.2-3.27-7.6-7.33-10.2-12.2-2.6-4.87-3.9-10.83-3.9-17.9,0-8.53,1.9-15.93,5.7-22.2,3.8-6.27,9.17-11.23,16.1-14.9,6.93-3.67,14.93-5.7,24-6.1,11.87,0,21.5,1.4,28.9,4.2,7.4,2.8,14.03,6.13,19.9,10l-11,22.2Z"/>
    <path class="cls-7" d="M786.4,48.26c18.27,0,32.27,4.5,42,13.5,9.73,9,14.6,21.03,14.6,36.1,0,6-.9,12.03-2.7,18.1-1.8,6.07-4.67,11.57-8.6,16.5-3.93,4.93-9.2,8.9-15.8,11.9-6.6,3-14.7,4.5-24.3,4.5h-20.8v46.6h-29V48.26h44.6ZM791.4,120.66c4.4,0,8.07-.77,11-2.3,2.93-1.53,5.23-3.47,6.9-5.8,1.67-2.33,2.87-4.77,3.6-7.3.73-2.53,1.1-4.73,1.1-6.6,0-1.47-.23-3.43-.7-5.9-.47-2.47-1.43-4.97-2.9-7.5-1.47-2.53-3.7-4.67-6.7-6.4-3-1.73-7.04-2.6-12.1-2.6h-20.8v44.4h20.6Z"/>
    <path class="cls-7" d="M869,48.26h100.4v28h-71.4v31.4h63.2v28h-63.2v31.8h74.2v28h-103.2V48.26Z"/>
    <path class="cls-7" d="M1046.79,48.26c12.4,0,22.87,2.03,31.4,6.1,8.53,4.07,15.03,9.8,19.5,17.2,4.47,7.4,6.7,16.17,6.7,26.3,0,6-.9,12-2.7,18s-4.73,11.47-8.8,16.4c-4.07,4.93-9.43,8.9-16.1,11.9-6.67,3-14.93,4.5-24.8,4.5h-20.8v46.8h-29V48.26h44.6ZM1051.79,120.66c5.87,0,10.43-1.23,13.7-3.7,3.27-2.47,5.57-5.4,6.9-8.8,1.33-3.4,2-6.5,2-9.3,0-1.6-.23-3.63-.7-6.1-.47-2.47-1.43-4.97-2.9-7.5-1.47-2.53-3.7-4.67-6.7-6.4-3-1.73-7.04-2.6-12.1-2.6h-20.8v44.4h20.6ZM1078.99,138.66l36.4,56.8h-33.8l-37.2-56,34.6-.8Z"/>
    <path class="cls-7" d="M1165.39,195.46V48.26h44c14.8,0,27.4,2.2,37.8,6.6,10.4,4.4,18.77,10.27,25.1,17.6,6.33,7.33,10.96,15.53,13.9,24.6,2.93,9.07,4.4,18.2,4.4,27.4,0,10.93-1.97,20.77-5.9,29.5-3.93,8.73-9.3,16.2-16.1,22.4-6.8,6.2-14.67,10.93-23.6,14.2-8.93,3.27-18.4,4.9-28.4,4.9h-51.2ZM1194.39,167.46h17.2c9.87,0,18.47-1.7,25.8-5.1,7.33-3.4,13.03-8.43,17.1-15.1,4.07-6.67,6.1-14.93,6.1-24.8s-1.57-17.43-4.7-23.5c-3.13-6.07-7-10.77-11.6-14.1-4.6-3.33-9.3-5.63-14.1-6.9-4.8-1.27-8.87-1.9-12.2-1.9h-23.6v91.4Z"/>
    <path class="cls-7" d="M1319.59,48.26h100.4v28h-71.4v31.4h63.2v28h-63.2v31.8h74.2v28h-103.2V48.26Z"/>
    <path class="cls-7" d="M1452.79,195.46V42.26h.2l81.8,116-12.4-2.8,81.6-113.2h.4v153.2h-29v-87.8l1.8,15-49.8,70.8h-.4l-51.2-70.8,5-13.8v86.6h-28Z"/>
    <path class="cls-7" d="M1642.38,195.46V42.26h.2l81.8,116-12.4-2.8,81.6-113.2h.4v153.2h-29v-87.8l1.8,15-49.8,70.8h-.4l-51.2-70.8,5-13.8v86.6h-28Z"/>
    <path class="cls-7" d="M1831.98,48.26h100.4v28h-71.4v31.4h63.2v28h-63.2v31.8h74.2v28h-103.2V48.26Z"/>
    <path class="cls-7" d="M2009.78,48.26c12.4,0,22.87,2.03,31.4,6.1,8.53,4.07,15.03,9.8,19.5,17.2,4.47,7.4,6.7,16.17,6.7,26.3,0,6-.9,12-2.7,18s-4.73,11.47-8.8,16.4c-4.07,4.93-9.43,8.9-16.1,11.9-6.67,3-14.93,4.5-24.8,4.5h-20.8v46.8h-29V48.26h44.6ZM2014.78,120.66c5.87,0,10.43-1.23,13.7-3.7,3.27-2.47,5.57-5.4,6.9-8.8,1.33-3.4,2-6.5,2-9.3,0-1.6-.23-3.63-.7-6.1-.47-2.47-1.43-4.97-2.9-7.5-1.47-2.53-3.7-4.67-6.7-6.4-3-1.73-7.04-2.6-12.1-2.6h-20.8v44.4h20.6ZM2041.98,138.66l36.4,56.8h-33.8l-37.2-56,34.6-.8Z"/>
    <path class="cls-7" d="M2180.98,83.86c-5.6-3.07-11.3-5.6-17.1-7.6s-11.23-3-16.3-3c-6.27,0-11.2,1.27-14.8,3.8-3.6,2.54-5.4,6.33-5.4,11.4,0,3.47,1.37,6.57,4.1,9.3,2.73,2.73,6.27,5.17,10.6,7.3,4.33,2.13,8.83,4.07,13.5,5.8,5.73,2.13,11.27,4.83,16.6,8.1,5.33,3.27,9.73,7.73,13.2,13.4,3.47,5.67,5.2,13.17,5.2,22.5,0,7.47-1.93,14.4-5.8,20.8-3.87,6.4-9.54,11.57-17,15.5-7.47,3.93-16.67,5.9-27.6,5.9-8.4,0-16.97-1.27-25.7-3.8-8.73-2.53-16.97-6.53-24.7-12l12.8-22.6c5.07,3.73,10.87,6.8,17.4,9.2,6.53,2.4,12.4,3.6,17.6,3.6,3.47,0,6.97-.5,10.5-1.5,3.53-1,6.47-2.7,8.8-5.1,2.33-2.4,3.5-5.73,3.5-10,0-2.93-.97-5.6-2.9-8-1.93-2.4-4.53-4.6-7.8-6.6-3.27-2-6.83-3.73-10.7-5.2-4.53-1.73-9.2-3.73-14-6-4.8-2.27-9.3-5.03-13.5-8.3-4.2-3.27-7.6-7.33-10.2-12.2-2.6-4.87-3.9-10.83-3.9-17.9,0-8.53,1.9-15.93,5.7-22.2,3.8-6.27,9.17-11.23,16.1-14.9,6.93-3.67,14.93-5.7,24-6.1,11.87,0,21.5,1.4,28.9,4.2,7.4,2.8,14.03,6.13,19.9,10l-11,22.2Z"/>
  </g>
</svg>