<svg width="80" height="80" viewBox="0 0 80 80" fill="none" xmlns="http://www.w3.org/2000/svg">
<g id="Social Icons/LinkedIn/Original" clip-path="url(#clip0_99_277)">
<path id="Vector" d="M74.0944 0H5.90556C4.33931 0 2.8372 0.622192 1.7297 1.7297C0.622192 2.8372 0 4.33931 0 5.90556V74.0944C0 75.6607 0.622192 77.1628 1.7297 78.2703C2.8372 79.3778 4.33931 80 5.90556 80H74.0944C75.6607 80 77.1628 79.3778 78.2703 78.2703C79.3778 77.1628 80 75.6607 80 74.0944V5.90556C80 4.33931 79.3778 2.8372 78.2703 1.7297C77.1628 0.622192 75.6607 0 74.0944 0ZM23.8444 68.15H11.8167V29.9444H23.8444V68.15ZM17.8222 24.65C16.4579 24.6423 15.1264 24.2307 13.9958 23.467C12.8652 22.7033 11.9861 21.6218 11.4696 20.359C10.953 19.0962 10.8222 17.7086 11.0934 16.3715C11.3647 15.0344 12.026 13.8076 12.9939 12.8459C13.9617 11.8843 15.1927 11.2309 16.5316 10.9682C17.8704 10.7055 19.257 10.8453 20.5165 11.37C21.776 11.8946 22.8518 12.7806 23.6082 13.916C24.3646 15.0515 24.7677 16.3856 24.7667 17.75C24.7795 18.6634 24.6084 19.5701 24.2634 20.416C23.9184 21.2619 23.4066 22.0297 22.7586 22.6736C22.1105 23.3174 21.3395 23.8243 20.4914 24.1638C19.6433 24.5034 18.7356 24.6687 17.8222 24.65ZM68.1778 68.1833H56.1556V47.3111C56.1556 41.1556 53.5389 39.2556 50.1611 39.2556C46.5944 39.2556 43.0944 41.9444 43.0944 47.4667V68.1833H31.0667V29.9722H42.6333V35.2667H42.7889C43.95 32.9167 48.0167 28.9 54.2222 28.9C60.9333 28.9 68.1833 32.8833 68.1833 44.55L68.1778 68.1833Z" fill="#0A66C2"/>
</g>
<defs>
<clipPath id="clip0_99_277">
<rect width="80" height="80" fill="white"/>
</clipPath>
</defs>
</svg>
